<svg width="1391.825px" height="236px" xmlns="http://www.w3.org/2000/svg" viewBox="-445.9125 -43 1391.825 236" style="background: rgba(0, 0, 0, 0);" preserveAspectRatio="xMidYMid"><defs><filter id="editing-jagged" x="-100%" y="-100%" width="300%" height="300%"><feTurbulence result="turb" baseFrequency="0.1" numOctaves="1" seed="1"></feTurbulence><feDisplacementMap in="SourceGraphic" in2="turb" scale="10"></feDisplacementMap></filter></defs><g filter="url(#editing-jagged)"><g transform="translate(-254.4899718761444, 124.68499898910522)"><path d="M41.31 0L38.26 0L38.26 0Q29.30 0 21.04 1.55L21.04 1.55L21.04 1.55Q12.77 3.11 4.10 6.21L4.10 6.21L4.10 6.21Q8.67-13.48 10.52-33.05L10.52-33.05L10.52-33.05Q12.36-52.62 12.48-72.01L12.48-72.01L2.05-73.42L2.05-73.42Q4.69-74.36 7.27-75.23L7.27-75.23L7.27-75.23Q9.84-76.11 12.48-76.93L12.48-76.93L12.48-76.93Q12.48-79.16 12.42-81.47L12.42-81.47L12.42-81.47Q12.36-83.79 12.36-86.02L12.36-86.02L12.36-86.02Q16.41-85.49 20.51-85.17L20.51-85.17L20.51-85.17Q24.61-84.84 28.83-84.84L28.83-84.84L28.83-84.84Q31.35-84.84 33.78-84.99L33.78-84.99L33.78-84.99Q36.21-85.14 38.79-85.31L38.79-85.31L38.50-83.14L38.50-83.14Q45.23-84.26 51.86-84.84L51.86-84.84L51.86-84.84Q58.48-85.43 65.16-85.43L65.16-85.43L65.16-85.43Q70.96-85.43 76.70-85.05L76.70-85.05L76.70-85.05Q82.44-84.67 88.30-83.79L88.30-83.79L88.30-83.79Q86.89-74.71 86.89-65.86L86.89-65.86L86.89-65.86Q86.89-62.17 87.10-58.48L87.10-58.48L87.10-58.48Q87.30-54.79 87.83-51.09L87.83-51.09L87.83-51.09Q75.47-56.07 63.02-60.03L63.02-60.03L63.02-60.03Q50.57-63.98 37.68-67.09L37.68-67.09L37.68-67.09Q37.50-63.75 37.47-60.50L37.47-60.50L37.47-60.50Q37.44-57.25 37.44-54.02L37.44-54.02L37.44-47.64L37.44-47.64Q42.36-48.34 47.20-48.78L47.20-48.78L47.20-48.78Q52.03-49.22 57.01-49.22L57.01-49.22L57.01-49.22Q58.24-49.22 59.50-49.16L59.50-49.16L59.50-49.16Q60.76-49.10 62.05-49.10L62.05-49.10L62.05-49.10Q60.59-42.19 60.59-35.04L60.59-35.04L60.59-35.04Q60.59-32.11 60.82-29.18L60.82-29.18L60.82-29.18Q61.05-26.25 61.46-23.26L61.46-23.26L61.46-23.26Q55.96-27.30 50.04-30.76L50.04-30.76L50.04-30.76Q44.12-34.22 37.79-37.21L37.79-37.21L37.79-37.21Q38.14-27.89 39.05-18.60L39.05-18.60L39.05-18.60Q39.96-9.32 41.31 0L41.31 0ZM126.27-69.84L126.27-69.84L126.27-69.84Q124.57-60.06 123.75-50.07L123.75-50.07L123.75-50.07Q122.93-40.08 122.93-29.88L122.93-29.88L122.93-29.88Q122.93-22.21 123.37-14.65L123.37-14.65L123.37-14.65Q123.81-7.09 124.80 0.23L124.80 0.23L124.80 0.23Q122.64 0.23 120.41 0.06L120.41 0.06L120.41 0.06Q118.18-0.12 115.49-0.12L115.49-0.12L115.49-0.12Q110.68-0.12 105.59 0.47L105.59 0.47L105.59 0.47Q100.49 1.05 94.69 2.17L94.69 2.17L94.69 2.17Q96.33-6.09 97.32-14.77L97.32-14.77L97.32-14.77Q98.32-23.44 98.32-32.40L98.32-32.40L98.32-32.40Q98.32-39.90 97.56-47.37L97.56-47.37L97.56-47.37Q96.80-54.84 95.16-62.29L95.16-62.29L95.16-62.29Q99.02-62.70 102.66-63.37L102.66-63.37L102.66-63.37Q106.29-64.04 110.04-64.98L110.04-64.98L110.04-64.98Q113.79-65.92 117.77-67.12L117.77-67.12L117.77-67.12Q121.76-68.32 126.27-69.84ZM226.58-3.11L226.58-3.11L226.58-3.11Q218.03-2.46 209.97-0.15L209.97-0.15L209.97-0.15Q201.91 2.17 193.59 6.21L193.59 6.21L193.59 6.21Q192.30-6.39 187.44-17.05L187.44-17.05L187.44-17.05Q185.10-16.52 182.70-16.23L182.70-16.23L182.70-16.23Q180.29-15.94 177.71-15.94L177.71-15.94L177.71-15.94Q176.72-15.94 175.75-15.94L175.75-15.94L175.75-15.94Q174.79-15.94 173.79-16.05L173.79-16.05L173.79-16.05Q173.96-6.97 174.49 2.05L174.49 2.05L174.49 2.05Q172.62 1.76 170.74 1.67L170.74 1.67L170.74 1.67Q168.87 1.58 167.17 1.58L167.17 1.58L167.17 1.58Q161.37 1.58 154.45 2.90L154.45 2.90L154.45 2.90Q147.54 4.22 139.57 6.86L139.57 6.86L139.57 6.86Q142.56-1.23 144.70-9.20L144.70-9.20L144.70-9.20Q146.84-17.17 148.07-25.31L148.07-25.31L148.07-25.31Q144.08-27.95 141.24-30.47L141.24-30.47L141.24-30.47Q138.40-32.99 136.93-34.69L136.93-34.69L136.93-34.69Q139.80-33.87 142.88-33.16L142.88-33.16L142.88-33.16Q145.96-32.46 149.06-31.93L149.06-31.93L149.06-31.93Q149.77-38.61 149.77-45.47L149.77-45.47L149.77-47.64L149.77-47.64Q146.60-46.64 143.50-45.53L143.50-45.53L143.50-45.53Q140.39-44.41 137.29-43.07L137.29-43.07L137.29-43.07Q139.10-48.93 139.10-53.91L139.10-53.91L139.10-53.91Q139.10-58.07 138.05-61.79L138.05-61.79L138.05-61.79Q136.99-65.51 135-68.79L135-68.79L135-68.79Q147.60-70.55 157.29-71.16L157.29-71.16L157.29-71.16Q166.99-71.78 174.61-71.78L174.61-71.78L174.61-71.78Q178.13-71.78 182.70-71.63L182.70-71.63L182.70-71.63Q187.27-71.48 192.07-70.90L192.07-70.90L192.07-70.90Q196.88-70.31 201.65-69.20L201.65-69.20L201.65-69.20Q206.43-68.09 210.41-66.15L210.41-66.15L210.41-66.15Q214.39-64.22 217.24-61.29L217.24-61.29L217.24-61.29Q220.08-58.36 221.07-54.26L221.07-54.26L221.07-54.26Q222.42-54.90 223.71-55.55L223.71-55.55L223.71-55.55Q225-56.19 226.35-57.01L226.35-57.01L226.35-57.01Q225.64-52.79 224.00-48.60L224.00-48.60L224.00-48.60Q222.36-44.41 219.93-40.49L219.93-40.49L219.93-40.49Q217.50-36.56 214.31-33.05L214.31-33.05L214.31-33.05Q211.11-29.53 207.36-26.54L207.36-26.54L207.36-26.54Q215.80-13.18 226.58-3.11ZM186.86-53.91L186.86-53.91L186.86-53.91Q184.51-53.91 181.29-53.64L181.29-53.64L181.29-53.64Q178.07-53.38 174.26-53.03L174.26-53.03L174.26-53.03Q174.08-47.40 173.94-41.81L173.94-41.81L173.94-41.81Q173.79-36.21 173.79-30.70L173.79-30.70L173.79-30.70Q177.30-31.23 180.41-32.43L180.41-32.43L180.41-32.43Q183.52-33.63 185.92-35.57L185.92-35.57L185.92-35.57Q188.32-37.50 189.87-40.28L189.87-40.28L189.87-40.28Q191.43-43.07 191.89-46.82L191.89-46.82L191.89-46.82Q194.12-47.17 196.44-47.52L196.44-47.52L196.44-47.52Q198.75-47.87 201.15-48.34L201.15-48.34L201.15-48.34Q201.04-48.34 201.04-48.40L201.04-48.40L201.04-48.46L201.15-48.46L201.15-48.46Q199.98-49.75 198.72-50.77L198.72-50.77L198.72-50.77Q197.46-51.80 195.82-52.50L195.82-52.50L195.82-52.50Q194.18-53.20 192.01-53.55L192.01-53.55L192.01-53.55Q189.84-53.91 186.86-53.91ZM267.60-1.35L267.83-0.23L267.83-0.23Q261.80-0.23 256.99-0.21L256.99-0.21L256.99-0.21Q252.19-0.18 248.06 0.09L248.06 0.09L248.06 0.09Q243.93 0.35 240.21 0.91L240.21 0.91L240.21 0.91Q236.48 1.46 232.56 2.52L232.56 2.52L232.56 2.52Q236.19-8.55 238.04-19.37L238.04-19.37L238.04-19.37Q239.88-30.18 239.88-41.02L239.88-41.02L239.88-41.02Q239.88-50.80 238.30-60.82L238.30-60.82L238.30-60.82Q234.67-61.35 231.09-61.70L231.09-61.70L230.86-61.70L237.83-63.46L236.60-69.38L236.60-69.38Q240.06-68.38 243.40-67.56L243.40-67.56L243.40-67.56Q246.74-66.74 250.20-66.09L250.20-66.09L250.20-66.09Q260.04-67.91 270.03-68.88L270.03-68.88L270.03-68.88Q280.02-69.84 290.27-69.84L290.27-69.84L290.27-69.84Q294.79-69.84 299.33-69.61L299.33-69.61L299.33-69.61Q303.87-69.38 309.08-69.02L309.08-69.02L309.08-69.02Q307.85-64.63 307.21-60.23L307.21-60.23L307.21-60.23Q306.56-55.84 306.56-51.21L306.56-51.21L306.56-51.21Q306.56-49.80 306.65-47.96L306.65-47.96L306.65-47.96Q306.74-46.11 307.03-43.95L307.03-43.95L307.03-43.95Q297.01-47.75 286.99-50.77L286.99-50.77L286.99-50.77Q276.97-53.79 266.60-56.02L266.60-56.02L266.60-56.02Q266.13-52.03 265.87-48.11L265.87-48.11L265.87-48.11Q265.61-44.18 265.43-40.20L265.43-40.20L265.43-40.20Q270.41-41.13 275.60-41.57L275.60-41.57L275.60-41.57Q280.78-42.01 286.41-42.13L286.41-42.13L286.41-42.13Q285.88-39.96 285.56-37.79L285.56-37.79L285.56-37.79Q285.23-35.63 285.23-33.34L285.23-33.34L285.23-33.34Q285.23-29.94 286.29-25.66L286.29-25.66L286.29-25.66Q281.02-27.83 275.86-29.68L275.86-29.68L275.86-29.68Q270.70-31.52 265.43-32.99L265.43-32.99L265.43-32.99Q265.43-28.24 265.61-23.12L265.61-23.12L265.61-23.12Q265.78-17.99 266.25-12.83L266.25-12.83L266.25-12.83Q276.27-14.18 286.41-16.44L286.41-16.44L286.41-16.44Q296.54-18.69 307.03-21.97L307.03-21.97L307.03-21.97Q306.33-18.16 305.92-14.56L305.92-14.56L305.92-14.56Q305.51-10.96 305.51-7.68L305.51-7.68L305.51-7.68Q305.51-1.46 306.91 5.04L306.91 5.04L306.91 5.04Q296.95 2.81 287.26 1.23L287.26 1.23L287.26 1.23Q277.56-0.35 267.60-1.35L267.60-1.35ZM456.56-40.08L456.56-40.08L456.56-40.08Q456.74-38.79 456.77-37.56L456.77-37.56L456.77-37.56Q456.80-36.33 456.80-35.16L456.80-35.16L456.80-35.16Q456.80-29.00 454.89-23.61L454.89-23.61L454.89-23.61Q452.99-18.22 449.65-13.71L449.65-13.71L449.65-13.71Q446.31-9.20 441.77-5.63L441.77-5.63L441.77-5.63Q437.23-2.05 431.89 0.41L431.89 0.41L431.89 0.41Q426.56 2.87 420.73 4.19L420.73 4.19L420.73 4.19Q414.90 5.51 409.04 5.51L409.04 5.51L409.04 5.51Q403.54 5.51 398.44 5.04L398.44 5.04L398.44 5.04Q393.34 4.57 388.77 4.57L388.77 4.57L388.77 4.57Q385.25 4.57 382.15 5.07L382.15 5.07L382.15 5.07Q379.04 5.57 376.41 7.09L376.41 7.09L376.41 7.09Q374.24-0.94 371.81-7.47L371.81-7.47L371.81-7.47Q369.38-14.00 367.32-18.63L367.32-18.63L367.32-18.63Q364.92-24.02 362.52-28.30L362.52-28.30L362.52-28.30Q369.49-24.67 376.49-22.56L376.49-22.56L376.49-22.56Q383.50-20.45 389.82-19.31L389.82-19.31L389.82-19.31Q396.15-18.16 401.37-17.84L401.37-17.84L401.37-17.84Q406.58-17.52 410.04-17.52L410.04-17.52L410.04-17.52Q413.91-17.52 417.83-17.99L417.83-17.99L417.83-17.99Q421.76-18.46 425.74-19.45L425.74-19.45L425.74-19.45Q424.75-20.80 423.69-21.86L423.69-21.86L423.69-21.86Q422.64-22.91 421.76-23.55L421.76-23.55L421.76-23.55Q420.70-24.32 419.71-24.84L419.71-24.84L419.71-24.84Q418.01-25.66 415.11-26.46L415.11-26.46L415.11-26.46Q412.21-27.25 408.66-28.18L408.66-28.18L408.66-28.18Q405.12-29.12 401.10-30.23L401.10-30.23L401.10-30.23Q397.09-31.35 393.13-32.81L393.13-32.81L393.13-32.81Q389.18-34.28 385.58-36.15L385.58-36.15L385.58-36.15Q381.97-38.03 379.16-40.43L379.16-40.43L379.16-40.43Q376.93-42.36 375.47-44.62L375.47-44.62L375.47-44.62Q374.00-46.88 373.15-49.25L373.15-49.25L373.15-49.25Q372.30-51.62 371.92-53.99L371.92-53.99L371.92-53.99Q371.54-56.37 371.48-58.54L371.48-58.54L371.48-58.54Q369.43-57.71 367.79-56.95L367.79-56.95L367.79-56.95Q366.15-56.19 364.98-55.66L364.98-55.66L362.64-54.49L362.64-54.49Q364.75-60.82 368.53-65.68L368.53-65.68L368.53-65.68Q372.30-70.55 377.02-74.12L377.02-74.12L377.02-74.12Q381.74-77.70 387.10-80.16L387.10-80.16L387.10-80.16Q392.46-82.62 397.73-84.20L397.73-84.20L397.73-84.20Q410.04-87.89 424.39-88.42L424.39-88.42L424.39-88.42Q428.85-88.42 433.89-88.77L433.89-88.77L433.89-88.77Q438.22-89.06 443.79-89.68L443.79-89.68L443.79-89.68Q449.36-90.29 455.51-91.46L455.51-91.46L455.51-91.46Q453.63-88.65 452.49-85.37L452.49-85.37L452.49-85.37Q451.35-82.09 450.70-78.75L450.70-78.75L450.70-78.75Q450.06-75.41 449.82-72.16L449.82-72.16L449.82-72.16Q449.59-68.91 449.59-66.21L449.59-66.21L449.59-66.21Q449.59-64.39 449.65-62.93L449.65-62.93L449.65-62.93Q449.71-61.46 449.82-60.41L449.82-60.41L449.82-60.41Q449.94-59.18 450.12-58.18L450.12-58.18L450.12-58.18Q439.86-62.81 430.14-64.66L430.14-64.66L430.14-64.66Q420.41-66.50 411.33-66.50L411.33-66.50L411.33-66.50Q408.22-66.50 405.41-66.30L405.41-66.30L405.41-66.30Q402.60-66.09 399.79-65.74L399.79-65.74L399.79-65.74Q400.43-62.93 402.10-61.05L402.10-61.05L402.10-61.05Q403.77-59.18 405.47-58.01L405.47-58.01L405.47-58.01Q407.46-56.66 409.75-55.90L409.75-55.90L409.75-55.90Q414.20-54.49 419.41-52.47L419.41-52.47L419.41-52.47Q424.63-50.45 429.84-47.46L429.84-47.46L429.84-47.46Q435.06-44.47 439.86-40.43L439.86-40.43L439.86-40.43Q444.67-36.39 448.30-31.05L448.30-31.05L448.30-31.05Q450.53-32.93 452.64-35.19L452.64-35.19L452.64-35.19Q454.75-37.44 456.56-40.08ZM553.07-57.01L553.07-57.01L553.07-57.01Q552.19-51.91 550.02-46.90L550.02-46.90L550.02-46.90Q547.85-41.89 544.54-37.35L544.54-37.35L544.54-37.35Q541.23-32.81 536.92-28.89L536.92-28.89L536.92-28.89Q532.62-24.96 527.49-22.09L527.49-22.09L527.49-22.09Q522.36-19.22 516.53-17.58L516.53-17.58L516.53-17.58Q510.70-15.94 504.43-15.94L504.43-15.94L504.43-15.94Q503.44-15.94 502.47-15.94L502.47-15.94L502.47-15.94Q501.50-15.94 500.51-16.05L500.51-16.05L500.51-16.05Q500.68-6.97 501.21 2.05L501.21 2.05L501.21 2.05Q499.34 1.76 497.46 1.67L497.46 1.67L497.46 1.67Q495.59 1.58 493.89 1.58L493.89 1.58L493.89 1.58Q488.09 1.58 481.17 2.90L481.17 2.90L481.17 2.90Q474.26 4.22 466.29 6.86L466.29 6.86L466.29 6.86Q469.28-1.23 471.42-9.20L471.42-9.20L471.42-9.20Q473.55-17.17 474.79-25.31L474.79-25.31L474.79-25.31Q470.80-27.95 467.96-30.47L467.96-30.47L467.96-30.47Q465.12-32.99 463.65-34.69L463.65-34.69L463.65-34.69Q466.52-33.87 469.60-33.16L469.60-33.16L469.60-33.16Q472.68-32.46 475.78-31.93L475.78-31.93L475.78-31.93Q476.48-38.61 476.48-45.47L476.48-45.47L476.48-47.64L476.48-47.64Q473.32-46.64 470.21-45.50L470.21-45.50L470.21-45.50Q467.11-44.36 464.00-43.07L464.00-43.07L464.00-43.07Q465.82-48.93 465.82-53.91L465.82-53.91L465.82-53.91Q465.82-58.07 464.77-61.79L464.77-61.79L464.77-61.79Q463.71-65.51 461.72-68.79L461.72-68.79L461.72-68.79Q474.32-70.55 484.01-71.16L484.01-71.16L484.01-71.16Q493.71-71.78 501.33-71.78L501.33-71.78L501.33-71.78Q504.84-71.78 509.41-71.63L509.41-71.63L509.41-71.63Q513.98-71.48 518.79-70.90L518.79-70.90L518.79-70.90Q523.59-70.31 528.37-69.20L528.37-69.20L528.37-69.20Q533.14-68.09 537.13-66.15L537.13-66.15L537.13-66.15Q541.11-64.22 543.96-61.29L543.96-61.29L543.96-61.29Q546.80-58.36 547.79-54.26L547.79-54.26L547.79-54.26Q549.14-54.90 550.43-55.55L550.43-55.55L550.43-55.55Q551.72-56.19 553.07-57.01ZM513.57-53.91L513.57-53.91L513.57-53.91Q510.41-53.91 507.28-53.70L507.28-53.70L507.28-53.70Q504.14-53.50 500.98-53.14L500.98-53.14L500.98-53.14Q500.80-47.46 500.65-41.89L500.65-41.89L500.65-41.89Q500.51-36.33 500.51-30.70L500.51-30.70L500.51-30.70Q504.02-31.23 507.13-32.43L507.13-32.43L507.13-32.43Q510.23-33.63 512.64-35.57L512.64-35.57L512.64-35.57Q515.04-37.50 516.59-40.28L516.59-40.28L516.59-40.28Q518.14-43.07 518.61-46.82L518.61-46.82L518.61-46.82Q520.84-47.17 523.15-47.52L523.15-47.52L523.15-47.52Q525.47-47.87 527.87-48.34L527.87-48.34L527.87-48.34Q527.75-48.34 527.75-48.40L527.75-48.40L527.75-48.46L527.87-48.46L527.87-48.46Q526.70-49.75 525.44-50.77L525.44-50.77L525.44-50.77Q524.18-51.80 522.54-52.50L522.54-52.50L522.54-52.50Q520.90-53.20 518.73-53.55L518.73-53.55L518.73-53.55Q516.56-53.91 513.57-53.91ZM591.09-1.35L591.33-0.23L591.33-0.23Q585.29-0.23 580.49-0.21L580.49-0.21L580.49-0.21Q575.68-0.18 571.55 0.09L571.55 0.09L571.55 0.09Q567.42 0.35 563.70 0.91L563.70 0.91L563.70 0.91Q559.98 1.46 556.05 2.52L556.05 2.52L556.05 2.52Q559.69-8.55 561.53-19.37L561.53-19.37L561.53-19.37Q563.38-30.18 563.38-41.02L563.38-41.02L563.38-41.02Q563.38-50.80 561.80-60.82L561.80-60.82L561.80-60.82Q558.16-61.35 554.59-61.70L554.59-61.70L554.36-61.70L561.33-63.46L560.10-69.38L560.10-69.38Q563.55-68.38 566.89-67.56L566.89-67.56L566.89-67.56Q570.23-66.74 573.69-66.09L573.69-66.09L573.69-66.09Q583.54-67.91 593.53-68.88L593.53-68.88L593.53-68.88Q603.52-69.84 613.77-69.84L613.77-69.84L613.77-69.84Q618.28-69.84 622.82-69.61L622.82-69.61L622.82-69.61Q627.36-69.38 632.58-69.02L632.58-69.02L632.58-69.02Q631.35-64.63 630.70-60.23L630.70-60.23L630.70-60.23Q630.06-55.84 630.06-51.21L630.06-51.21L630.06-51.21Q630.06-49.80 630.15-47.96L630.15-47.96L630.15-47.96Q630.23-46.11 630.53-43.95L630.53-43.95L630.53-43.95Q620.51-47.75 610.49-50.77L610.49-50.77L610.49-50.77Q600.47-53.79 590.10-56.02L590.10-56.02L590.10-56.02Q589.63-52.03 589.37-48.11L589.37-48.11L589.37-48.11Q589.10-44.18 588.93-40.20L588.93-40.20L588.93-40.20Q593.91-41.13 599.09-41.57L599.09-41.57L599.09-41.57Q604.28-42.01 609.90-42.13L609.90-42.13L609.90-42.13Q609.38-39.96 609.05-37.79L609.05-37.79L609.05-37.79Q608.73-35.63 608.73-33.34L608.73-33.34L608.73-33.34Q608.73-29.94 609.79-25.66L609.79-25.66L609.79-25.66Q604.51-27.83 599.36-29.68L599.36-29.68L599.36-29.68Q594.20-31.52 588.93-32.99L588.93-32.99L588.93-32.99Q588.93-28.24 589.10-23.12L589.10-23.12L589.10-23.12Q589.28-17.99 589.75-12.83L589.75-12.83L589.75-12.83Q599.77-14.18 609.90-16.44L609.90-16.44L609.90-16.44Q620.04-18.69 630.53-21.97L630.53-21.97L630.53-21.97Q629.82-18.16 629.41-14.56L629.41-14.56L629.41-14.56Q629.00-10.96 629.00-7.68L629.00-7.68L629.00-7.68Q629.00-1.46 630.41 5.04L630.41 5.04L630.41 5.04Q620.45 2.81 610.75 1.23L610.75 1.23L610.75 1.23Q601.05-0.35 591.09-1.35L591.09-1.35ZM731.37-22.09L731.37-22.09L731.37-22.09Q728.91-20.92 726.50-19.83L726.50-19.83L726.50-19.83Q724.10-18.75 721.64-17.75L721.64-17.75L721.64-17.75Q727.03-8.03 733.54 0.59L733.54 0.59L733.54 0.59Q724.45 0.59 716.19 2.37L716.19 2.37L716.19 2.37Q707.93 4.16 699.43 7.91L699.43 7.91L699.43 7.91Q700.08 6.39 700.22 4.78L700.22 4.78L700.22 4.78Q700.37 3.16 700.37 1.46L700.37 1.46L700.37 1.46Q700.37-1.35 699.84-4.72L699.84-4.72L699.84-4.72Q699.32-8.09 698.26-11.78L698.26-11.78L698.26-11.78Q695.80-11.43 693.34-11.28L693.34-11.28L693.34-11.28Q690.88-11.13 688.54-11.13L688.54-11.13L688.54-11.13Q684.38-11.13 680.36-11.63L680.36-11.63L680.36-11.63Q676.35-12.13 672.66-13.30L672.66-13.30L672.66-13.30Q671.66-8.96 670.84-4.42L670.84-4.42L670.84-4.42Q670.02 0.12 669.20 4.92L669.20 4.92L669.20 4.92Q666.21 3.40 662.64 2.17L662.64 2.17L662.64 2.17Q659.59 1.17 655.58 0.29L655.58 0.29L655.58 0.29Q651.56-0.59 647.11-0.59L647.11-0.59L647.11-0.59Q643.30-0.59 639.02 0.06L639.02 0.06L639.02 0.06Q634.75 0.70 629.59 2.17L629.59 2.17L629.59 2.17Q633.57-1.76 637.06-5.83L637.06-5.83L637.06-5.83Q640.55-9.90 643.45-13.68L643.45-13.68L643.45-13.68Q646.35-17.46 648.60-20.77L648.60-20.77L648.60-20.77Q650.86-24.08 652.38-26.54L652.38-26.54L652.38-26.54Q650.68-28.59 649.25-30.94L649.25-30.94L649.25-30.94Q647.81-33.28 646.52-35.98L646.52-35.98L646.52-35.98Q648.87-34.80 651.15-33.84L651.15-33.84L651.15-33.84Q653.44-32.87 655.66-32.05L655.66-32.05L655.66-32.05Q658.36-36.80 661.35-41.60L661.35-41.60L661.35-41.60Q664.34-46.41 667.73-50.98L667.73-50.98L667.73-50.98Q667.03-52.68 665.95-54.84L665.95-54.84L665.95-54.84Q664.86-57.01 663.60-59.33L663.60-59.33L663.60-59.33Q662.34-61.64 660.94-63.93L660.94-63.93L660.94-63.93Q659.53-66.21 658.18-68.14L658.18-68.14L658.18-68.14Q663.81-66.62 669.46-65.74L669.46-65.74L669.46-65.74Q675.12-64.86 680.74-64.57L680.74-64.57L680.74-64.57Q683.96-67.21 687.48-69.40L687.48-69.40L687.48-69.40Q691.00-71.60 694.86-73.30L694.86-73.30L694.86-73.30Q693.63-71.25 692.46-69.08L692.46-69.08L692.46-69.08Q691.29-66.91 690.18-64.69L690.18-64.69L690.18-64.69Q693.11-64.98 696.09-65.36L696.09-65.36L696.09-65.36Q699.08-65.74 702.30-66.39L702.30-66.39L702.30-66.39Q704.47-58.48 707.05-50.98L707.05-50.98L707.05-50.98Q709.63-43.48 712.62-36.21L712.62-36.21L712.62-36.21Q715.20-37.68 717.74-39.23L717.74-39.23L717.74-39.23Q720.29-40.78 722.81-42.60L722.81-42.60L722.81-42.60Q724.63-36.45 726.74-31.29L726.74-31.29L726.74-31.29Q728.85-26.13 731.37-22.09ZM692.11-28.30L692.11-28.30L692.11-28.30Q690.06-32.87 687.63-37.53L687.63-37.53L687.63-37.53Q685.20-42.19 682.38-46.93L682.38-46.93L682.38-46.93Q678.93-37.68 676.05-27.25L676.05-27.25L676.05-27.25Q677.11-27.13 678.13-27.13L678.13-27.13L678.13-27.13Q679.16-27.13 680.21-27.13L680.21-27.13L680.21-27.13Q683.20-27.13 686.16-27.39L686.16-27.39L686.16-27.39Q689.12-27.66 692.11-28.30ZM774.08-66.97L774.08-66.97L774.08-66.97Q771.80-52.03 771.45-37.09L771.45-37.09L771.45-37.09Q780.18-44.18 787.65-52.88L787.65-52.88L787.65-52.88Q795.12-61.58 801.80-71.78L801.80-71.78L801.80-71.78Q807.42-65.80 813.98-61.58L813.98-61.58L813.98-61.58Q820.55-57.36 827.99-54.49L827.99-54.49L828.22-54.49L828.22-54.49Q820.61-48.63 812.23-43.62L812.23-43.62L812.23-43.62Q803.85-38.61 795.12-34.92L795.12-34.92L795.12-34.92Q800.98-25.96 808.51-18.40L808.51-18.40L808.51-18.40Q816.04-10.84 824.65-4.10L824.65-4.10L824.12-4.10L824.12-4.10Q808.59-1.17 793.89 6.50L793.89 6.50L793.89 6.50Q789.90-3.22 784.37-11.37L784.37-11.37L784.37-11.37Q778.83-19.51 771.33-26.02L771.33-26.02L771.33-26.02Q771.45-19.51 771.80-13.01L771.80-13.01L771.80-13.01Q772.15-6.50 772.79 0L772.79 0L772.79 0Q768.34 0.23 764.12 0.73L764.12 0.73L764.12 0.73Q759.90 1.23 755.71 2.02L755.71 2.02L755.71 2.02Q751.52 2.81 747.30 3.87L747.30 3.87L747.30 3.87Q743.09 4.92 738.57 6.21L738.57 6.21L738.57 6.21Q747.01-18.40 747.01-44.18L747.01-44.18L747.01-44.18Q747.01-50.33 746.46-56.69L746.46-56.69L746.46-56.69Q745.90-63.05 744.84-69.84L744.84-69.84L744.84-69.84Q750.47-68.14 755.36-67.32L755.36-67.32L755.36-67.32Q760.25-66.50 764.88-66.50L764.88-66.50L764.88-66.50Q766.76-66.50 768.90-66.59L768.90-66.59L768.90-66.59Q771.04-66.68 774.08-66.97ZM866.89-1.35L867.13-0.23L867.13-0.23Q861.09-0.23 856.29-0.21L856.29-0.21L856.29-0.21Q851.48-0.18 847.35 0.09L847.35 0.09L847.35 0.09Q843.22 0.35 839.50 0.91L839.50 0.91L839.50 0.91Q835.78 1.46 831.86 2.52L831.86 2.52L831.86 2.52Q835.49-8.55 837.33-19.37L837.33-19.37L837.33-19.37Q839.18-30.18 839.18-41.02L839.18-41.02L839.18-41.02Q839.18-50.80 837.60-60.82L837.60-60.82L837.60-60.82Q833.96-61.35 830.39-61.70L830.39-61.70L830.16-61.70L837.13-63.46L835.90-69.38L835.90-69.38Q839.36-68.38 842.70-67.56L842.70-67.56L842.70-67.56Q846.04-66.74 849.49-66.09L849.49-66.09L849.49-66.09Q859.34-67.91 869.33-68.88L869.33-68.88L869.33-68.88Q879.32-69.84 889.57-69.84L889.57-69.84L889.57-69.84Q894.08-69.84 898.62-69.61L898.62-69.61L898.62-69.61Q903.16-69.38 908.38-69.02L908.38-69.02L908.38-69.02Q907.15-64.63 906.50-60.23L906.50-60.23L906.50-60.23Q905.86-55.84 905.86-51.21L905.86-51.21L905.86-51.21Q905.86-49.80 905.95-47.96L905.95-47.96L905.95-47.96Q906.04-46.11 906.33-43.95L906.33-43.95L906.33-43.95Q896.31-47.75 886.29-50.77L886.29-50.77L886.29-50.77Q876.27-53.79 865.90-56.02L865.90-56.02L865.90-56.02Q865.43-52.03 865.17-48.11L865.17-48.11L865.17-48.11Q864.90-44.18 864.73-40.20L864.73-40.20L864.73-40.20Q869.71-41.13 874.89-41.57L874.89-41.57L874.89-41.57Q880.08-42.01 885.70-42.13L885.70-42.13L885.70-42.13Q885.18-39.96 884.85-37.79L884.85-37.79L884.85-37.79Q884.53-35.63 884.53-33.34L884.53-33.34L884.53-33.34Q884.53-29.94 885.59-25.66L885.59-25.66L885.59-25.66Q880.31-27.83 875.16-29.68L875.16-29.68L875.16-29.68Q870-31.52 864.73-32.99L864.73-32.99L864.73-32.99Q864.73-28.24 864.90-23.12L864.90-23.12L864.90-23.12Q865.08-17.99 865.55-12.83L865.55-12.83L865.55-12.83Q875.57-14.18 885.70-16.44L885.70-16.44L885.70-16.44Q895.84-18.69 906.33-21.97L906.33-21.97L906.33-21.97Q905.63-18.16 905.21-14.56L905.21-14.56L905.21-14.56Q904.80-10.96 904.80-7.68L904.80-7.68L904.80-7.68Q904.80-1.46 906.21 5.04L906.21 5.04L906.21 5.04Q896.25 2.81 886.55 1.23L886.55 1.23L886.55 1.23Q876.86-0.35 866.89-1.35L866.89-1.35ZM1006.93-3.11L1006.93-3.11L1006.93-3.11Q998.38-2.46 990.32-0.15L990.32-0.15L990.32-0.15Q982.27 2.17 973.95 6.21L973.95 6.21L973.95 6.21Q972.66-6.39 967.79-17.05L967.79-17.05L967.79-17.05Q965.45-16.52 963.05-16.23L963.05-16.23L963.05-16.23Q960.64-15.94 958.07-15.94L958.07-15.94L958.07-15.94Q957.07-15.94 956.10-15.94L956.10-15.94L956.10-15.94Q955.14-15.94 954.14-16.05L954.14-16.05L954.14-16.05Q954.32-6.97 954.84 2.05L954.84 2.05L954.84 2.05Q952.97 1.76 951.09 1.67L951.09 1.67L951.09 1.67Q949.22 1.58 947.52 1.58L947.52 1.58L947.52 1.58Q941.72 1.58 934.80 2.90L934.80 2.90L934.80 2.90Q927.89 4.22 919.92 6.86L919.92 6.86L919.92 6.86Q922.91-1.23 925.05-9.20L925.05-9.20L925.05-9.20Q927.19-17.17 928.42-25.31L928.42-25.31L928.42-25.31Q924.43-27.95 921.59-30.47L921.59-30.47L921.59-30.47Q918.75-32.99 917.29-34.69L917.29-34.69L917.29-34.69Q920.16-33.87 923.23-33.16L923.23-33.16L923.23-33.16Q926.31-32.46 929.41-31.93L929.41-31.93L929.41-31.93Q930.12-38.61 930.12-45.47L930.12-45.47L930.12-47.64L930.12-47.64Q926.95-46.64 923.85-45.53L923.85-45.53L923.85-45.53Q920.74-44.41 917.64-43.07L917.64-43.07L917.64-43.07Q919.45-48.93 919.45-53.91L919.45-53.91L919.45-53.91Q919.45-58.07 918.40-61.79L918.40-61.79L918.40-61.79Q917.34-65.51 915.35-68.79L915.35-68.79L915.35-68.79Q927.95-70.55 937.65-71.16L937.65-71.16L937.65-71.16Q947.34-71.78 954.96-71.78L954.96-71.78L954.96-71.78Q958.48-71.78 963.05-71.63L963.05-71.63L963.05-71.63Q967.62-71.48 972.42-70.90L972.42-70.90L972.42-70.90Q977.23-70.31 982.00-69.20L982.00-69.20L982.00-69.20Q986.78-68.09 990.76-66.15L990.76-66.15L990.76-66.15Q994.75-64.22 997.59-61.29L997.59-61.29L997.59-61.29Q1000.43-58.36 1001.43-54.26L1001.43-54.26L1001.43-54.26Q1002.77-54.90 1004.06-55.55L1004.06-55.55L1004.06-55.55Q1005.35-56.19 1006.70-57.01L1006.70-57.01L1006.70-57.01Q1006.00-52.79 1004.36-48.60L1004.36-48.60L1004.36-48.60Q1002.71-44.41 1000.28-40.49L1000.28-40.49L1000.28-40.49Q997.85-36.56 994.66-33.05L994.66-33.05L994.66-33.05Q991.46-29.53 987.71-26.54L987.71-26.54L987.71-26.54Q996.15-13.18 1006.93-3.11ZM967.21-53.91L967.21-53.91L967.21-53.91Q964.86-53.91 961.64-53.64L961.64-53.64L961.64-53.64Q958.42-53.38 954.61-53.03L954.61-53.03L954.61-53.03Q954.43-47.40 954.29-41.81L954.29-41.81L954.29-41.81Q954.14-36.21 954.14-30.70L954.14-30.70L954.14-30.70Q957.66-31.23 960.76-32.43L960.76-32.43L960.76-32.43Q963.87-33.63 966.27-35.57L966.27-35.57L966.27-35.57Q968.67-37.50 970.22-40.28L970.22-40.28L970.22-40.28Q971.78-43.07 972.25-46.82L972.25-46.82L972.25-46.82Q974.47-47.17 976.79-47.52L976.79-47.52L976.79-47.52Q979.10-47.87 981.50-48.34L981.50-48.34L981.50-48.34Q981.39-48.34 981.39-48.40L981.39-48.40L981.39-48.46L981.50-48.46L981.50-48.46Q980.33-49.75 979.07-50.77L979.07-50.77L979.07-50.77Q977.81-51.80 976.17-52.50L976.17-52.50L976.17-52.50Q974.53-53.20 972.36-53.55L972.36-53.55L972.36-53.55Q970.20-53.91 967.21-53.91Z" fill="#444"></path></g></g><style>text {
  font-size: 64px;
  font-family: Arial Black;
  dominant-baseline: central;
  text-anchor: middle;
}</style></svg>